<svg xmlns="http://www.w3.org/2000/svg" width="1203.026" height="532.937" viewBox="0 0 1203.026 532.937">
  <g id="Group_10" data-name="Group 10" transform="translate(-72.231 -122.735)" opacity="0.6">
    <path id="Path_20" data-name="Path 20" d="M684.665,429.244q-29.212,0-48.243,22.57t-19.03,65.5q0,39.833,16.376,60.41t42.486,20.582q28.766,0,47.137-22.574t18.364-65.5q0-39.832-15.931-60.41T684.665,429.244Z" fill="none"/>
    <path id="Path_21" data-name="Path 21" d="M422.816,429.244q-29.214,0-48.243,22.57t-19.031,65.5q0,39.833,16.377,60.41T414.4,598.311q28.766,0,47.136-22.574t18.365-65.5q0-39.832-15.931-60.41T422.816,429.244Z" fill="none"/>
    <path id="Path_22" data-name="Path 22" d="M707.27,198.488l550.944,131.54,9.013-46.083c2.6-13.488-4.875-26.709-16.693-29.531L707.669,124.8a75.7,75.7,0,0,0-35.674.125L89.775,268.28c-11.886,2.926-19.537,16.247-17.088,29.753l8.521,45.942L671.6,198.613A75.7,75.7,0,0,1,707.27,198.488Z" fill="#b3ffb5"/>
    <path id="Path_23" data-name="Path 23" d="M83.311,455.118l70.372-4.871V646.995H191.3a25.782,25.782,0,0,0,19.25-7.965,26.36,26.36,0,0,0,7.746-19.035V444.94l76.565-5.312V373.921L83.311,393.837Z" fill="#b3ffb5"/>
    <path id="Path_24" data-name="Path 24" d="M492.963,388.526q-26.334-14.607-59.528-14.605-5.757,0-17.258.886-34.523,3.981-61.741,21.909t-42.931,49.345q-15.715,31.431-15.711,74.8,0,42.931,15.711,72.581t42.931,44.483q27.216,14.82,61.741,14.825,37.174,0,67.494-16.377t48.238-49.57q17.926-33.194,17.928-80.546,0-43.82-15.269-73.471T492.963,388.526ZM461.541,575.737q-18.372,22.574-47.136,22.574-26.121,0-42.486-20.582-16.383-20.577-16.377-60.41,0-42.924,19.031-65.5t48.243-22.57q25.225,0,41.159,20.582t15.931,60.41Q479.906,553.174,461.541,575.737Z" fill="#b3ffb5"/>
    <path id="Path_25" data-name="Path 25" d="M754.812,388.526q-26.334-14.607-59.528-14.605-5.757,0-17.258.886-34.523,3.981-61.741,21.909t-42.931,49.345q-15.715,31.431-15.711,74.8,0,42.931,15.711,72.581t42.931,44.483q27.216,14.82,61.741,14.825,37.175,0,67.494-16.377t48.239-49.57q17.925-33.194,17.928-80.546,0-43.82-15.27-73.471T754.812,388.526ZM723.391,575.737q-18.373,22.574-47.137,22.574-26.12,0-42.486-20.582-16.383-20.577-16.376-60.41,0-42.924,19.03-65.5t48.243-22.57q25.226,0,41.159,20.582t15.931,60.41Q741.755,553.174,723.391,575.737Z" fill="#b3ffb5"/>
    <path id="Path_26" data-name="Path 26" d="M983.47,384.986a30.017,30.017,0,0,0-7.745,20.357V537.677L882.783,387.639l-60.635,6.2v253.6h60.635V494.745l92.056,152.691h69.486V370.822l-41.6,4.426A27.53,27.53,0,0,0,983.47,384.986Z" fill="#b3ffb5"/>
    <path id="Path_27" data-name="Path 27" d="M1275.166,553.608q-.447-13.713-7.745-28.543a85.41,85.41,0,0,0-54.658-44.038,247.887,247.887,0,0,0-38.5-7.525q-13.725-2.211-20.137-3.985a22.283,22.283,0,0,1-10.844-6.639q-3.987-3.979-3.985-11.505a27.07,27.07,0,0,1,4.206-14.384,22.109,22.109,0,0,1,11.285-9.517,63,63,0,0,1,23.9-4.867q26.108,0,48.239,21.689l39.391-43.377q-12.843-13.711-32.307-23.236a94.556,94.556,0,0,0-42.046-9.513,72.651,72.651,0,0,0-9.3.441q-35.844,3.547-58.2,15.936a105.264,105.264,0,0,0-36.512,33.193q-11.514,16.824-11.51,40.274a71.6,71.6,0,0,0,6.418,30.315A56.2,56.2,0,0,0,1103,511.562q17.265,11.955,40.277,18.149l17.7,4.426a181.367,181.367,0,0,1,20.578,5.087,67.959,67.959,0,0,1,12.616,5.532,57.473,57.473,0,0,1,9.958,9.738,19.007,19.007,0,0,1,3.761,11.95,31.41,31.41,0,0,1-3.54,14.164q-3.1,7.086-12.171,11.064a50.751,50.751,0,0,1-20.582,3.981,65.209,65.209,0,0,1-27-5.753,130.227,130.227,0,0,1-23.456-13.277,26.561,26.561,0,0,0-16.376-5.312,29.167,29.167,0,0,0-12.392,2.658,25.258,25.258,0,0,0-9.737,7.966l-17.7,21.688q6.192,8.856,21.909,21.463t40.273,22.35q24.566,9.73,53.776,7.965,59.3-3.1,77.451-34.961T1275.166,553.608Z" fill="#b3ffb5"/>
  </g>
</svg>
